<?xml version="1.0" standalone="no"?>
<!DOCTYPE svg PUBLIC "-//W3C//DTD SVG 20010904//EN"
 "http://www.w3.org/TR/2001/REC-SVG-20010904/DTD/svg10.dtd">
<svg version="1.0" xmlns="http://www.w3.org/2000/svg"
 width="70.000000pt" height="70.000000pt" viewBox="0 0 70.000000 70.000000"
 preserveAspectRatio="xMidYMid meet">
<metadata>
Created by potrace 1.11, written by Peter Selinger 2001-2013
</metadata>
<g transform="translate(0.000000,70.000000) scale(0.100000,-0.100000)"
fill="#000000" stroke="none">
<path d="M227 633 c-8 -13 -5 -83 3 -88 13 -8 23 15 24 57 1 35 -14 52 -27 31z"/>
<path d="M66 572 c-6 -10 51 -72 65 -72 18 0 8 27 -19 53 -30 29 -38 32 -46
19z"/>
<path d="M357 548 c-19 -21 -24 -35 -17 -42 11 -11 70 39 70 61 0 22 -24 14
-53 -19z"/>
<path d="M177 498 c-29 -21 -55 -64 -51 -85 1 -7 2 -22 3 -32 2 -32 45 -75 66
-68 16 7 15 10 -9 32 -14 13 -26 30 -27 37 0 7 -2 21 -4 31 -4 22 50 77 76 77
11 0 33 -7 49 -15 22 -12 29 -12 33 -2 14 38 -92 57 -136 25z"/>
<path d="M362 469 c-26 -10 -78 -48 -75 -55 1 -2 -5 -20 -13 -39 -8 -20 -12
-40 -9 -45 3 -5 -5 -12 -18 -15 -47 -12 -77 -78 -58 -128 21 -54 49 -61 230
-63 192 -1 228 8 261 62 23 41 26 84 6 122 -27 53 -57 67 -143 71 -7 1 -13 7
-13 14 -1 17 -31 52 -59 67 -31 16 -80 20 -109 9z m108 -47 c16 -13 37 -39 45
-59 13 -30 17 -34 30 -23 25 21 91 -4 110 -40 24 -46 19 -79 -18 -114 l-33
-31 -170 0 c-113 1 -176 5 -191 13 -46 25 -40 91 10 115 17 9 34 14 38 11 4
-2 6 14 6 35 -1 48 24 88 66 106 41 18 69 15 107 -13z"/>
<path d="M0 404 c0 -12 10 -14 47 -12 66 4 70 28 4 28 -39 0 -51 -4 -51 -16z"/>
<path d="M89 278 c-26 -27 -28 -34 -14 -36 19 -4 65 35 65 55 0 22 -18 15 -51
-19z"/>
</g>
</svg>
